<svg width="25" height="24" viewBox="0 0 25 24" fill="none" xmlns="http://www.w3.org/2000/svg">
<path d="M16.0156 8.98999V20.35C16.0156 21.8 14.9756 22.41 13.7056 21.71L9.77563 19.52C9.35563 19.29 8.67562 19.29 8.25562 19.52L4.32562 21.71C3.05562 22.41 2.01562 21.8 2.01562 20.35V8.98999C2.01562 7.27999 3.41561 5.88 5.12561 5.88H12.9056C14.6156 5.88 16.0156 7.27999 16.0156 8.98999Z" stroke="black" stroke-width="1.5" stroke-linecap="round" stroke-linejoin="round"/>
<path d="M22.0156 5.10999V16.47C22.0156 17.92 20.9756 18.53 19.7056 17.83L16.0156 15.77V8.98999C16.0156 7.27999 14.6156 5.88 12.9056 5.88H8.01562V5.10999C8.01562 3.39999 9.41561 2 11.1256 2H18.9056C20.6156 2 22.0156 3.39999 22.0156 5.10999Z" stroke="black" stroke-width="1.5" stroke-linecap="round" stroke-linejoin="round"/>
<path d="M7.01562 12H11.0156" stroke="black" stroke-width="1.5" stroke-linecap="round" stroke-linejoin="round"/>
<path d="M9.01562 14V10" stroke="black" stroke-width="1.5" stroke-linecap="round" stroke-linejoin="round"/>
</svg>
