<svg width="25" height="24" viewBox="0 0 25 24" fill="none" xmlns="http://www.w3.org/2000/svg">
<path d="M17.2157 12.4C14.5657 12.4 12.4156 14.55 12.4156 17.2C12.4156 18.1 12.6657 18.95 13.1157 19.67C13.9457 21.06 15.4657 22 17.2157 22C18.9657 22 20.4956 21.06 21.3156 19.67C21.7556 18.95 22.0156 18.1 22.0156 17.2C22.0156 14.55 19.8657 12.4 17.2157 12.4ZM19.5956 16.57L17.0357 18.93C16.8957 19.06 16.7056 19.13 16.5257 19.13C16.3356 19.13 16.1456 19.06 15.9956 18.91L14.8156 17.73C14.5257 17.44 14.5257 16.96 14.8156 16.67C15.1056 16.38 15.5856 16.38 15.8756 16.67L16.5457 17.34L18.5756 15.46C18.8756 15.18 19.3557 15.2 19.6357 15.5C19.9157 15.81 19.8956 16.29 19.5956 16.57Z" fill="#E82121"/>
<path d="M22.0156 8.73001C22.0156 9.92001 21.8256 11.02 21.4956 12.04C21.4356 12.25 21.1856 12.31 21.0056 12.18C19.9156 11.37 18.5856 10.94 17.2156 10.94C13.7456 10.94 10.9156 13.77 10.9156 17.24C10.9156 18.32 11.1956 19.38 11.7256 20.32C11.8856 20.6 11.6956 20.96 11.3956 20.85C8.98563 20.03 4.11562 17.04 2.53562 12.04C2.20562 11.02 2.01562 9.92001 2.01562 8.73001C2.01562 5.64001 4.50563 3.14001 7.57562 3.14001C9.38562 3.14001 11.0056 4.02001 12.0156 5.37001C13.0256 4.02001 14.6456 3.14001 16.4556 3.14001C19.5256 3.14001 22.0156 5.64001 22.0156 8.73001Z" fill="#E82121"/>
</svg>
