<svg width="25" height="24" viewBox="0 0 25 24" fill="none" xmlns="http://www.w3.org/2000/svg">
<path d="M17.0156 21H7.01562C3.01562 21 2.01562 20 2.01562 16V8C2.01562 4 3.01562 3 7.01562 3H17.0156C21.0156 3 22.0156 4 22.0156 8V16C22.0156 20 21.0156 21 17.0156 21Z" stroke="white" stroke-width="1.5" stroke-linecap="round" stroke-linejoin="round"/>
<path d="M14.0156 8H19.0156" stroke="white" stroke-width="1.5" stroke-linecap="round" stroke-linejoin="round"/>
<path d="M15.0156 12H19.0156" stroke="white" stroke-width="1.5" stroke-linecap="round" stroke-linejoin="round"/>
<path d="M17.0156 16H19.0156" stroke="white" stroke-width="1.5" stroke-linecap="round" stroke-linejoin="round"/>
<path d="M8.51557 11.29C9.5152 11.29 10.3256 10.4797 10.3256 9.48004C10.3256 8.48041 9.5152 7.67004 8.51557 7.67004C7.51593 7.67004 6.70557 8.48041 6.70557 9.48004C6.70557 10.4797 7.51593 11.29 8.51557 11.29Z" stroke="white" stroke-width="1.5" stroke-linecap="round" stroke-linejoin="round"/>
<path d="M12.0156 16.33C11.8756 14.88 10.7256 13.74 9.27563 13.61C8.77563 13.56 8.26562 13.56 7.75562 13.61C6.30562 13.75 5.15563 14.88 5.01562 16.33" stroke="white" stroke-width="1.5" stroke-linecap="round" stroke-linejoin="round"/>
</svg>
